<?xml version="1.0" encoding="UTF-8" standalone="no"?>
<svg width="219px" height="187px" viewBox="0 0 219 187" version="1.1" xmlns="http://www.w3.org/2000/svg" xmlns:xlink="http://www.w3.org/1999/xlink">
    <g stroke="none" stroke-width="1" fill="none" fill-rule="evenodd">
        <g transform="translate(-151.000000, -302.000000)" fill="#FFFFFF">
            <g transform="translate(151.000000, 302.000000)">
                <path d="M131.1,19.1 L123.4,6 L123.4,6 C121.2,1.8 118.1,1.8 115.6,1.8 L99.7,1.8 C97.3,1.8 95.8,4.4 97,6.5 L104.8,19.7 C107,23.7 110,23.8 112.5,23.8 L128.4,23.8 C130.8,23.8 132.3,21.2 131.1,19.1 L131.1,19.1 Z" id="XMLID_109_"></path>
                <path d="M172.5,19.1 L164.8,6 L164.8,6 C162.6,1.8 159.5,1.8 157,1.8 L141.1,1.8 C138.7,1.8 137.2,4.4 138.4,6.5 L146.2,19.7 C148.4,23.7 151.4,23.8 153.9,23.8 L169.8,23.8 C172.2,23.8 173.7,21.2 172.5,19.1 L172.5,19.1 Z" id="XMLID_108_"></path>
                <path d="M194,56 L186.3,42.9 L186.3,42.9 C184.1,38.7 181,38.7 178.5,38.7 L162.6,38.7 C160.2,38.7 158.7,41.3 159.9,43.4 L167.7,56.6 C169.9,60.6 172.9,60.7 175.4,60.7 L191.3,60.7 C193.7,60.7 195.2,58.1 194,56 L194,56 Z" id="XMLID_107_"></path>
                <path d="M152.6,56 L144.9,42.9 L144.9,42.9 C142.7,38.7 139.6,38.7 137.1,38.7 L121.2,38.7 C118.8,38.7 117.3,41.3 118.5,43.4 L126.3,56.6 C128.5,60.6 131.5,60.7 134,60.7 L149.9,60.7 C152.3,60.7 153.8,58.1 152.6,56 L152.6,56 Z" id="XMLID_106_"></path>
                <path d="M111.8,56 L104.1,42.9 L104.1,42.9 C101.9,38.7 98.8,38.7 96.3,38.7 L80.4,38.7 C78,38.7 76.5,41.3 77.7,43.4 L85.5,56.6 C87.7,60.6 90.7,60.7 93.2,60.7 L109.1,60.7 C111.5,60.7 113,58.1 111.8,56 L111.8,56 Z" id="XMLID_105_"></path>
                <path d="M174.1,92.9 L166.4,79.8 L166.4,79.8 C164.2,75.6 161.1,75.6 158.6,75.6 L142.7,75.6 C140.3,75.6 138.8,78.2 140,80.3 L147.8,93.5 C150,97.5 153,97.6 155.5,97.6 L171.4,97.6 C173.8,97.6 175.3,95 174.1,92.9 L174.1,92.9 Z" id="XMLID_104_"></path>
                <path d="M133.3,92.9 L125.6,79.8 L125.6,79.8 C123.4,75.6 120.3,75.6 117.8,75.6 L101.9,75.6 C99.5,75.6 98,78.2 99.2,80.3 L107,93.5 C109.2,97.5 112.2,97.6 114.7,97.6 L130.6,97.6 C133,97.6 134.5,95 133.3,92.9 L133.3,92.9 Z" id="XMLID_103_"></path>
                <path d="M90.7,19.7 L82.3,5.4 L82.2,5.3 L90.7,19.7 C90.7,19.8 90.7,19.7 90.7,19.7 L90.7,19.7 Z" id="XMLID_102_"></path>
                <path d="M179.1,80.8 L179.6,81.7 L179.1,80.8 C179.1,80.7 179.1,80.7 179.1,80.8 L179.1,80.8 Z" id="XMLID_101_"></path>
                <path d="M217.3,96.6 L216.8,95.7 L206.9,78.6 C205.3,76.6 203.5,75.9 201.7,75.7 L181.6,75.7 C181.4,75.7 181.2,75.7 181,75.8 C179.1,76.4 178,78.7 179.1,80.7 L179.7,81.7 L189.5,98.8 C190.1,99.8 190,101 189.5,102 L154.3,160.3 C153.7,161.2 152.7,161.8 151.6,161.8 L75,161.8 C73.9,161.8 72.9,161.2 72.3,160.3 L29.1,86.3 C28.5,85.3 28.5,84.1 29.1,83.1 L63.7,26.5 C64.3,25.6 65.3,25 66.4,25 L70.4,25 L87.8,25 C90.4,25 92,22.2 90.8,19.9 L82.3,5.4 C79.9,0.9 76.6,0.9 73.8,0.9 L56.4,0.9 L52.3,0.9 C51.2,0.9 50.2,1.5 49.6,2.4 L2.5,79.4 C3.28626015e-14,83.6 0.2,86.2 2,89.2 L56.3,182 C58.5,185.7 60.7,186.4 62.6,186.5 L64.6,186.5 L161.6,186.5 C166.4,186.5 167.7,185.5 169.8,182.2 L216.9,104.4 L216.9,104.4 C218.6,101.6 219.2,100 217.3,96.6 L217.3,96.6 Z" id="XMLID_100_"></path>
            </g>
        </g>
    </g>
</svg>
