<?xml version="1.0" encoding="utf-8"?>
<!-- Generator: Adobe Illustrator 19.2.1, SVG Export Plug-In . SVG Version: 6.00 Build 0)  -->
<!DOCTYPE svg PUBLIC "-//W3C//DTD SVG 1.1//EN" "http://www.w3.org/Graphics/SVG/1.1/DTD/svg11.dtd">
<svg version="1.1" id="Layer_1" xmlns="http://www.w3.org/2000/svg" xmlns:xlink="http://www.w3.org/1999/xlink" x="0px" y="0px"
	 viewBox="0 0 841.9 237" style="enable-background:new 0 0 841.9 237;" xml:space="preserve">
<style type="text/css">
	.st0{fill:#3C97D3;}
	.st1{fill:#26B891;}
	.st2{fill:#EE4095;}
	.st3{fill:#FFFFFF;}
</style>
<polygon class="st0" points="709.5,24.6 721.2,11.7 817.9,118.2 721.2,224.7 709.5,211.9 794.5,118.2 "/>
<polygon class="st1" points="35.9,118.2 120.8,211.9 109.1,224.7 12.5,118.2 109.1,11.7 120.8,24.6 "/>
<rect x="578.1" y="4.8" transform="matrix(0.9294 0.3692 -0.3692 0.9294 85.3535 -208.3167)" class="st2" width="17.8" height="228.1"/>
<g id="Ebene_1_5_">
	<g>
		<path id="XMLID_50_" class="st3" d="M355.2,32.6l-8.8-15l0,0c-2.5-4.8-6.1-4.8-9-4.8h-18.3c-2.8,0-4.5,3-3.1,5.4l9,15.2
			c2.5,4.6,6,4.7,8.8,4.7h18.3C354.9,38,356.6,35,355.2,32.6z"/>
		<path id="XMLID_49_" class="st3" d="M402.7,32.6l-8.8-15l0,0c-2.5-4.8-6.1-4.8-9-4.8h-18.3c-2.8,0-4.5,3-3.1,5.4l9,15.2
			c2.5,4.6,6,4.7,8.8,4.7h18.3C402.4,38,404.1,35,402.7,32.6z"/>
		<path id="XMLID_48_" class="st3" d="M427.4,74.9l-8.8-15l0,0c-2.5-4.8-6.1-4.8-9-4.8h-18.3c-2.8,0-4.5,3-3.1,5.4l9,15.2
			c2.5,4.6,6,4.7,8.8,4.7h18.3C427.1,80.3,428.8,77.3,427.4,74.9z"/>
		<path id="XMLID_47_" class="st3" d="M379.9,74.9l-8.8-15l0,0c-2.5-4.8-6.1-4.8-9-4.8h-18.3c-2.8,0-4.5,3-3.1,5.4l9,15.2
			c2.5,4.6,6,4.7,8.8,4.7h18.3C379.6,80.3,381.3,77.3,379.9,74.9z"/>
		<path id="XMLID_46_" class="st3" d="M333.1,74.9l-8.8-15l0,0c-2.5-4.8-6.1-4.8-9-4.8H297c-2.8,0-4.5,3-3.1,5.4l9,15.2
			c2.5,4.6,6,4.7,8.8,4.7H330C332.7,80.3,334.5,77.3,333.1,74.9z"/>
		<path id="XMLID_45_" class="st3" d="M404.6,117.3l-8.8-15l0,0c-2.5-4.8-6.1-4.8-9-4.8h-18.3c-2.8,0-4.5,3-3.1,5.4l9,15.2
			c2.5,4.6,6,4.7,8.8,4.7h18.3C404.2,122.7,406,119.7,404.6,117.3z"/>
		<path id="XMLID_44_" class="st3" d="M357.8,117.3l-8.8-15l0,0c-2.5-4.8-6.1-4.8-9-4.8h-18.3c-2.8,0-4.5,3-3.1,5.4l9,15.2
			c2.5,4.6,6,4.7,8.8,4.7h18.3C357.4,122.7,359.1,119.7,357.8,117.3z"/>
		<path id="XMLID_43_" class="st3" d="M308.9,33.3l-9.6-16.4l-0.1-0.1L308.9,33.3C308.9,33.4,308.9,33.3,308.9,33.3z"/>
		<path id="XMLID_42_" class="st3" d="M410.3,103.4l0.6,1L410.3,103.4C410.3,103.3,410.3,103.3,410.3,103.4z"/>
		<path id="XMLID_41_" class="st3" d="M454.2,121.5l-0.6-1l-11.4-19.6c-1.8-2.3-3.9-3.1-6-3.3h-23.1c-0.2,0-0.5,0-0.7,0.1
			c-2.2,0.7-3.4,3.3-2.2,5.6l0.7,1.1l11.2,19.6c0.7,1.1,0.6,2.5,0,3.7l-40.4,66.9c-0.7,1-1.8,1.7-3.1,1.7h-87.9
			c-1.3,0-2.4-0.7-3.1-1.7l-49.6-84.9c-0.7-1.1-0.7-2.5,0-3.7l39.7-65c0.7-1,1.8-1.7,3.1-1.7h4.6h20c3,0,4.8-3.2,3.4-5.9l-9.8-16.6
			c-2.8-5.2-6.5-5.2-9.8-5.2h-20h-4.7c-1.3,0-2.4,0.7-3.1,1.7l-54.1,88.4c-2.9,4.8-2.6,7.8-0.6,11.2l62.3,106.5
			c2.5,4.2,5.1,5.1,7.2,5.2h2.3h111.3c5.5,0,7-1.1,9.4-4.9l54.1-89.3l0,0C455.7,127.3,456.4,125.4,454.2,121.5z"/>
	</g>
</g>
</svg>
